<?xml version="1.0" encoding="UTF-8"?>
<svg width="128px" height="138px" viewBox="0 0 128 138" version="1.1" xmlns="http://www.w3.org/2000/svg" preserveAspectRatio="xMidYMid">
    <g>
        <path d="M122.268996,55.0417787 C127.737296,51.9042168 129.619834,44.8222688 126.482272,39.3539689 L120.745083,29.4930824 C117.607521,24.0247825 110.525573,22.1422453 105.057273,25.2798073 L81.211802,38.9955025 L81.211802,11.4745347 C81.211802,5.19941079 76.0123913,0 69.7372673,0 L58.2627327,0 C51.9876087,0 46.788198,5.19941079 46.788198,11.4745347 L46.788198,38.9955025 L22.9427271,25.2798073 C17.4744273,22.1422453 10.3924793,24.0247825 7.25491734,29.4930824 L1.51772843,39.3539689 C-1.61983352,44.8222688 0.262703653,51.9042168 5.7310035,55.0417787 L29.5764743,68.8470513 L5.7310035,82.6523239 C0.262703653,85.7898859 -1.61983352,92.8718338 1.51772843,98.3401337 L7.25491734,108.20102 C10.3924793,113.66932 17.4744273,115.551857 22.9427271,112.414295 L46.788198,98.6986001 L46.788198,126.219568 C46.788198,132.494692 51.9876087,137.694103 58.2627327,137.694103 L69.7372673,137.694103 C76.0123913,137.694103 81.211802,132.494692 81.211802,126.219568 L81.211802,98.6986001 L105.057273,112.414295 C110.525573,115.551857 117.607521,113.66932 120.745083,108.20102 L126.482272,98.3401337 C129.619834,92.8718338 127.737296,85.7898859 122.268996,82.6523239 L98.4235257,68.8470513 L122.268996,55.0417787 Z" fill="currentColor"></path>
    </g>
</svg>
