<?xml version="1.0" encoding="UTF-8"?>
<svg width="128px" height="128px" viewBox="0 0 128 128" version="1.1" xmlns="http://www.w3.org/2000/svg" preserveAspectRatio="xMidYMid">
    <g>
        <path d="M95.7499687,82.8333603 C95.7499687,81.3889293 95.2221977,80.1389428 94.1666557,79.0834007 L79.0832549,64 L94.1666557,48.9165993 C95.2221977,47.8610572 95.7499687,46.6110707 95.7499687,45.1666397 C95.7499687,43.6665975 95.2221977,42.3888055 94.1666557,41.3332635 L86.6665907,33.8331985 C85.6110487,32.7776565 84.3332566,32.2498855 82.8332145,32.2498855 C81.3887834,32.2498855 80.1387969,32.7776565 79.0832549,33.8331985 L63.9998542,48.9165993 L48.9164534,33.8331985 C47.8609114,32.7776565 46.6109249,32.2498855 45.1664939,32.2498855 C43.6664517,32.2498855 42.3886596,32.7776565 41.3331176,33.8331985 L33.8330527,41.3332635 C32.7775107,42.3888055 32.2497397,43.6665975 32.2497397,45.1666397 C32.2497397,46.6110707 32.7775107,47.8610572 33.8330527,48.9165993 L48.9164534,64 L33.8330527,79.0834007 C32.7775107,80.1389428 32.2497397,81.3889293 32.2497397,82.8333603 C32.2497397,84.3334025 32.7775107,85.6111945 33.8330527,86.6667365 L41.3331176,94.1668015 C42.3886596,95.2223435 43.6664517,95.7501145 45.1664939,95.7501145 C46.6109249,95.7501145 47.8609114,95.2223435 48.9164534,94.1668015 L63.9998542,79.0834007 L79.0832549,94.1668015 C80.1387969,95.2223435 81.3887834,95.7501145 82.8332145,95.7501145 C84.3332566,95.7501145 85.6110487,95.2223435 86.6665907,94.1668015 L94.1666557,86.6667365 C95.1562263,85.6771659 95.6819357,84.4922583 95.7437839,83.1120137 L95.7499687,82.8333603 Z M128,64 C128,75.6111566 125.138895,86.3195073 119.416685,96.1250521 C113.694475,105.930597 105.930597,113.694474 96.1250521,119.416685 C86.3195073,125.138895 75.6111566,128 64,128 C52.3888434,128 41.6804927,125.138895 31.8749479,119.416685 C22.069403,113.694475 14.3055255,105.930597 8.58331529,96.1250521 C2.8611051,86.3195073 0,75.6111566 0,64 C0,52.3888434 2.8611051,41.6804927 8.58331529,31.8749479 C14.3055255,22.069403 22.069403,14.305525 31.8749479,8.583315 C41.6804927,2.861105 52.3888434,0 64,0 C75.6111566,0 86.3195073,2.861105 96.1250521,8.583315 C105.930597,14.305525 113.694475,22.069403 119.416685,31.8749479 C125.138895,41.6804927 128,52.3888434 128,64 Z" fill="currentColor"></path>
    </g>
</svg>
