<?xml version="1.0" encoding="UTF-8"?>
<svg width="128px" height="128px" viewBox="0 0 128 128" version="1.1" xmlns="http://www.w3.org/2000/svg" preserveAspectRatio="xMidYMid">
    <g>
        <path d="M98.4616109,108.307718 C98.4616109,106.974398 97.9744378,105.820564 97.0000915,104.846218 C96.0257452,103.871872 94.8719117,103.384698 93.538591,103.384698 C92.2052703,103.384698 91.0514368,103.871872 90.0770905,104.846218 C89.1027442,105.820564 88.615571,106.974398 88.615571,108.307718 C88.615571,109.641039 89.1027442,110.794873 90.0770905,111.769219 C91.0514368,112.743565 92.2052703,113.230738 93.538591,113.230738 C94.8719117,113.230738 96.0257452,112.743565 97.0000915,111.769219 C97.9094814,110.859829 98.3944893,109.794086 98.4551153,108.571989 L98.4616109,108.307718 Z M118.153825,108.307718 C118.153825,106.974398 117.666652,105.820564 116.692306,104.846218 C115.71796,103.871872 114.564126,103.384698 113.230805,103.384698 C111.897485,103.384698 110.743651,103.871872 109.769305,104.846218 C108.794959,105.820564 108.307786,106.974398 108.307786,108.307718 C108.307786,109.641039 108.794959,110.794873 109.769305,111.769219 C110.743651,112.743565 111.897485,113.230738 113.230805,113.230738 C114.564126,113.230738 115.71796,112.743565 116.692306,111.769219 C117.601696,110.859829 118.086703,109.794086 118.147329,108.571989 L118.153825,108.307718 Z M128,91.0769465 L128,115.692316 C128,117.743585 127.282051,119.487169 125.846154,120.923066 C124.410256,122.358964 122.666672,123.076913 120.615403,123.076913 L7.38459726,123.076913 C5.33332772,123.076913 3.58974413,122.358964 2.15384648,120.923066 C0.717948826,119.487169 0,117.743585 0,115.692316 L0,91.0769465 C0,89.0256769 0.717948826,87.2820933 2.15384648,85.8461957 C3.58974413,84.410298 5.33332772,83.6923492 7.38459726,83.6923492 L43.1537949,83.6923492 L53.5384311,94.1538508 C56.5128034,97.0256461 59.9999706,98.4615437 63.9999327,98.4615437 C67.9998948,98.4615437 71.487062,97.0256461 74.4614343,94.1538508 L84.9229358,83.6923492 L120.615268,83.6923492 C122.666538,83.6923492 124.410121,84.410298 125.846019,85.8461957 C127.206343,87.2065198 127.922424,88.8429941 127.994033,90.7556188 L128,91.0769465 Z M103.000035,47.3076899 C103.871804,49.4102928 103.51283,51.2051648 101.923111,52.6923061 L67.4615678,87.1538497 C66.5384651,88.128196 65.3846316,88.6153692 64.0000673,88.6153692 C62.7078073,88.6153692 61.6165394,88.1909873 60.7262638,87.3422234 L26.0770231,52.6923061 C24.487305,51.2051648 24.1283305,49.4102928 25.0000999,47.3076899 C25.8718693,45.307664 27.3846772,44.307651 29.5385237,44.307651 L49.2308728,44.307651 L49.2308728,9.84610714 C49.2308728,8.51278714 49.7180459,7.35895314 50.6923922,6.38460714 C51.6667385,5.41026014 52.820572,4.92308714 54.1538928,4.92308714 L73.8462419,4.92308714 C75.1795626,4.92308714 76.3333961,5.41026014 77.3077424,6.38460714 C78.2820887,7.35895314 78.7692618,8.51278714 78.7692618,9.84610714 L78.7692618,44.307651 L98.4616109,44.307651 C100.615457,44.307651 102.128265,45.307664 103.000035,47.3076899 Z" fill="currentColor"></path>
    </g>
</svg>
