<?xml version="1.0" encoding="UTF-8"?>
<svg width="128px" height="128px" viewBox="0 0 128 128" version="1.1" xmlns="http://www.w3.org/2000/svg" preserveAspectRatio="xMidYMid">
    <g>
        <path d="M97.2308572,0.923059 L97.2308572,21.230756 L85.1538235,21.230756 C80.743549,21.230756 77.7691736,22.153815 76.2306974,23.999933 C74.6922212,25.84605 73.9229831,28.6152716 73.9229831,32.3075965 L73.9229831,46.8460755 L96.4615294,46.8460755 L93.4614873,69.6153529 L73.9229831,69.6153529 L73.9229831,128 L50.3845125,128 L50.3845125,69.6153529 L30.7691428,69.6153529 L30.7691428,46.8460755 L50.3845125,46.8460755 L50.3845125,30.0768823 C50.3845125,20.538384 53.0512016,13.140945 58.3845798,7.884567 C63.717958,2.628189 70.8205435,0 79.6923362,0 L80.4165827,0 L80.4165827,0 L81.8333781,0.0086446648 L81.8333781,0.0086446648 L83.2079101,0.0240129595 C83.4334769,0.0272146877 83.6572826,0.0307365888 83.8793274,0.0345786628 L85.1904643,0.0614731826 C85.4054652,0.0665959486 85.6187051,0.0720388875 85.830184,0.0778019995 L87.0779258,0.116222748 L87.0779258,0.116222748 L88.2834043,0.162327651 L88.2834043,0.162327651 L89.4466193,0.216116711 C89.6369665,0.2257219 89.8255528,0.235647263 90.0123781,0.245892799 L91.112198,0.311208096 C91.2919794,0.322734325 91.4699998,0.334580728 91.6462592,0.346747304 L92.682684,0.423588842 C92.8518995,0.437036111 93.0193541,0.450803554 93.1850477,0.464891171 L94.1580774,0.553258953 C94.6340264,0.599363885 95.0941267,0.648350379 95.5383781,0.700218436 L96.4057494,0.807796633 C96.5467893,0.82636668 96.6860682,0.845256901 96.8235862,0.864467295 L97.2308572,0.923059 Z" fill="currentColor"></path>
    </g>
</svg>
