<?xml version="1.0" encoding="UTF-8"?>
<svg width="128px" height="128px" viewBox="0 0 128 128" version="1.1" xmlns="http://www.w3.org/2000/svg" preserveAspectRatio="xMidYMid">
    <g>
        <path d="M128,55.2727454 L128,72.7272546 C128,75.1514832 127.151515,77.2120828 125.454544,78.9090534 C123.757573,80.606024 121.696974,81.4545093 119.272745,81.4545093 L8.72725465,81.4545093 C6.30302608,81.4545093 4.2424265,80.606024 2.5454559,78.9090534 C0.8484853,77.2120828 0,75.1514832 0,72.7272546 L0,55.2727454 C0,52.8485168 0.8484853,50.7879172 2.5454559,49.0909466 C4.2424265,47.393976 6.30302608,46.5454907 8.72725465,46.5454907 L119.272745,46.5454907 C121.696974,46.5454907 123.757573,47.393976 125.454544,49.0909466 C127.07438,50.7107822 127.921112,52.6619409 127.994741,54.9444227 L128,55.2727454 Z" fill="currentColor"></path>
    </g>
</svg>
