<?xml version="1.0" encoding="UTF-8"?>
<svg width="128px" height="128px" viewBox="0 0 128 128" version="1.1" xmlns="http://www.w3.org/2000/svg" preserveAspectRatio="xMidYMid">
    <path d="M846.857 350.857c34.857-20 46.857-65.143 26.857-100l-36.571-62.857c-20-34.857-65.143-46.857-100-26.857l-152 87.429v-175.429c0-40-33.143-73.143-73.143-73.143h-73.143c-40 0-73.143 33.143-73.143 73.143v175.429l-152-87.429c-34.857-20-80-8-100 26.857l-36.571 62.857c-20 34.857-8 80 26.857 100l152 88-152 88c-34.857 20-46.857 65.143-26.857 100l36.571 62.857c20 34.857 65.143 46.857 100 26.857l152-87.429v175.429c0 40 33.143 73.143 73.143 73.143h73.143c40 0 73.143-33.143 73.143-73.143v-175.429l152 87.429c34.857 20 80 8 100-26.857l36.571-62.857c20-34.857 8-80-26.857-100l-152-88z" />
</svg>
