<?xml version="1.0" encoding="UTF-8"?>
<svg width="128px" height="128px" viewBox="0 0 128 128" version="1.1" xmlns="http://www.w3.org/2000/svg" preserveAspectRatio="xMidYMid">
    <g>
        <path d="M128,55.2727345 L128,72.7272655 C128,75.1514971 127.151514,77.2120992 125.454541,78.9090719 C123.757568,80.6060446 121.696966,81.454531 119.272735,81.454531 L81.454531,81.454531 L81.454531,119.272734 C81.454531,121.696966 80.6060446,123.757568 78.9090719,125.454541 C77.2120992,127.151514 75.1514971,128 72.7272655,128 L55.2727345,128 C52.8485029,128 50.7879008,127.151514 49.0909281,125.454541 C47.3939554,123.757568 46.545469,121.696966 46.545469,119.272735 L46.545469,81.454531 L8.7272655,81.454531 C6.30303392,81.454531 4.24243178,80.6060446 2.54545907,78.9090719 C0.848486355,77.2120992 -1.06878178e-15,75.1514971 -1.06878178e-15,72.7272655 L-1.06878178e-15,55.2727345 C-1.06878178e-15,52.8485029 0.848486355,50.7879008 2.54545907,49.0909281 C4.24243178,47.3939554 6.30303392,46.545469 8.7272655,46.545469 L46.545469,46.545469 L46.545469,8.727265 C46.545469,6.303034 47.3939554,4.242432 49.0909281,2.545459 C50.7879008,0.848486 52.8485029,0 55.2727345,0 L72.7272655,0 C75.1514971,0 77.2120992,0.848486 78.9090719,2.545459 C80.6060446,4.242432 81.454531,6.303034 81.454531,8.727265 L81.454531,46.545469 L119.272735,46.545469 C121.696966,46.545469 123.757568,47.3939554 125.454541,49.0909281 C127.151514,50.7879008 128,52.8485029 128,55.2727345 Z" fill="currentColor"></path>
    </g>
</svg>
