<?xml version="1.0" encoding="UTF-8"?>
<svg width="128px" height="128px" viewBox="0 0 128 128" version="1.1" xmlns="http://www.w3.org/2000/svg" preserveAspectRatio="xMidYMid">
    <g>
        <path d="M88.6154364,54.1537588 C88.6154364,44.6666035 85.2436346,36.5512241 78.500031,29.8076205 C71.7564274,23.064017 63.641048,19.692215 54.1538928,19.692215 C44.6667375,19.692215 36.5513581,23.064017 29.8077545,29.8076205 C23.0641509,36.5512241 19.6923491,44.6666035 19.6923491,54.1537588 C19.6923491,63.640914 23.0641509,71.7562934 29.8077545,78.499897 C36.5513581,85.2435006 44.6667375,88.6153024 54.1538928,88.6153024 C63.641048,88.6153024 71.7564274,85.2435006 78.500031,78.499897 C85.2436346,71.7562934 88.6154364,63.640914 88.6154364,54.1537588 Z M128,118.153691 C128,120.820333 127.025654,123.128045 125.076961,125.076827 C123.128268,127.025609 120.820557,127.999866 118.153825,127.999866 C115.384607,127.999866 113.076895,127.02552 111.23069,125.076827 L84.8460704,98.7690731 C75.6665562,105.128036 65.4357855,108.307517 54.1537581,108.307517 C46.8204493,108.307517 39.807615,106.884453 33.115255,104.038324 C26.422895,101.192195 20.6536826,97.3460537 15.8076178,92.4998991 C10.9615529,87.6537446 7.11541133,81.8845321 4.26919295,75.1922619 C1.42297457,68.500001 -1.20580863e-15,61.4871573 -1.20580863e-15,54.1537588 C-1.20580863e-15,46.8203602 1.42315406,39.8075258 4.26919295,33.1152556 C7.11523184,26.422985 10.9613734,20.653773 15.8076178,15.807618 C20.6538621,10.961464 26.4230745,7.115322 33.115255,4.269194 C39.8074355,1.423065 46.8202699,9.99999997e-07 54.1537581,9.99999997e-07 C61.4872464,9.99999997e-07 68.5000808,1.423065 75.1922613,4.269194 C81.8844418,7.115322 87.6536542,10.961464 92.4998985,15.807618 C97.3461428,20.653773 101.192284,26.422985 104.038323,33.1152556 C106.884362,39.8075258 108.307427,46.8203602 108.307516,54.1537588 C108.307516,65.4357861 105.128035,75.6665569 98.7690725,84.8460711 L125.153692,111.23069 C126.968643,113.045642 127.915697,115.235956 127.994619,117.801634 L128,118.153691 Z" fill="currentColor"></path>
    </g>
</svg>
