<?xml version="1.0" encoding="UTF-8"?>
<svg width="128px" height="128px" viewBox="0 0 128 128" version="1.1" xmlns="http://www.w3.org/2000/svg" preserveAspectRatio="xMidYMid">
    <g>
        <path d="M30.1969418,34.510681 C30.1969418,32.1290545 29.3543763,30.0957151 27.6692454,28.4106628 C25.9841145,26.7256109 23.9507752,25.8829669 21.5692273,25.8829669 C19.1876794,25.8829669 17.15434,26.7254529 15.4692091,28.4106628 C13.7840782,30.0958724 12.9415128,32.1292117 12.9415128,34.510681 C12.9415128,36.8921502 13.7840782,38.9254896 15.4692091,40.6106991 C17.15434,42.2959087 19.1876794,43.1383955 21.5692273,43.1383955 C23.9507752,43.1383955 25.9841145,42.2957514 27.6692454,40.6106991 C29.3543763,38.9256469 30.1969418,36.8923075 30.1969418,34.510681 Z M102.116856,73.3353373 C102.116856,75.7169638 101.285536,77.7390973 99.6228958,79.4017377 L66.5276374,112.564467 C64.7751138,114.227108 62.7305292,115.058428 60.3938836,115.058428 C58.0122571,115.058428 55.9901236,114.227108 54.3274831,112.564467 L6.1337538,64.3032668 C4.42621111,62.6406264 2.97703313,60.3713734 1.78621988,57.4955079 C0.595406627,54.6196423 0,51.9908963 0,49.6092698 L0,21.5692859 C0,19.2326409 0.853771346,17.2105069 2.56131404,15.5028859 C4.26885673,13.7952639 6.29099022,12.9415719 8.6277145,12.9415719 L36.6676982,12.9415719 C39.0493247,12.9415719 41.6780707,13.5369779 44.5539362,14.7277919 C47.4298017,15.9186049 49.7215451,17.3677829 51.4291665,19.0753259 L99.6228958,67.2017014 C101.206363,68.8707715 102.035798,70.8047495 102.111201,73.0036355 L102.116856,73.3353373 Z M128,73.3353373 C128,75.7169638 127.16868,77.7390973 125.506039,79.4017377 L92.4107809,112.564467 C90.6582573,114.227108 88.6136727,115.058428 86.2770271,115.058428 C84.6593675,115.058428 83.3337689,114.743877 82.3002314,114.114774 C81.2666939,113.485671 80.0758806,112.474624 78.7277916,111.081632 L110.407568,79.4018557 C112.070209,77.7392152 112.901529,75.7170817 112.901529,73.3354552 C112.901529,70.9988096 112.070209,68.954225 110.407568,67.2017014 L62.2138391,19.0753259 C60.5062964,17.3677829 58.214553,15.9186049 55.3386088,14.7277919 C52.4626647,13.5369779 49.8339187,12.9415719 47.4523708,12.9415719 L62.5508417,12.9415719 C64.9324682,12.9415719 67.5612142,13.5369779 70.4370797,14.7277919 C73.3129452,15.9186049 75.6046887,17.3677829 77.31231,19.0753259 L125.506039,67.2017014 C127.089507,68.8707715 127.918942,70.8047495 127.994345,73.0036355 L128,73.3353373 Z" fill="currentColor"></path>
    </g>
</svg>
