<?xml version="1.0" encoding="UTF-8"?>
<svg width="128px" height="128px" viewBox="0 0 128 128" version="1.1" xmlns="http://www.w3.org/2000/svg" preserveAspectRatio="xMidYMid">
    <g>
        <path d="M128,24.3652431 C124.372226,29.6715007 119.986462,34.1926688 114.842709,37.9287476 L114.86576,38.3055233 L114.86576,38.3055233 L114.893132,38.9716088 L114.893132,38.9716088 L114.916183,40.0481107 L114.916183,40.0481107 L114.923386,40.996778 L114.923386,40.996778 L114.923866,41.339913 C114.923866,48.3788527 113.895116,55.4042424 111.837614,62.4160823 C109.780113,69.4279222 106.653212,76.1554983 102.45691,82.5988106 C98.2606077,89.042123 93.2656667,94.7409484 87.4720866,99.6952871 C81.6785065,104.649626 74.6937191,108.602266 66.5177243,111.553208 C58.3417295,114.504151 49.5972545,115.979622 40.2842993,115.979622 C25.6108873,115.979622 12.1827875,112.054081 0,104.203 C1.89509186,104.419609 4.00674534,104.527914 6.33496045,104.527914 C18.5176532,104.527914 29.3738291,100.791882 38.903488,93.3198191 C33.2182124,93.2115146 28.1285168,91.4653295 23.6344012,88.081264 C19.1402857,84.6971985 16.0539864,80.3790895 14.3755036,75.1269372 C16.1622909,75.3976511 17.8137214,75.533008 19.3297948,75.533008 C21.6580099,75.533008 23.9591726,75.2351943 26.2332828,74.639567 C20.1689889,73.3942073 15.1469955,70.3756103 11.1673026,65.5837757 C7.18760965,60.7919412 5.1977632,55.2284727 5.1977632,48.8933701 L5.1977632,48.5684566 C8.87964242,50.6259578 12.8322829,51.7359605 17.0556846,51.8984646 C13.4821099,49.5160499 10.6394721,46.4026982 8.52777124,42.5584096 C6.41607038,38.7141211 5.36021995,34.544919 5.36021995,30.0508034 C5.36021995,25.2859741 6.55142732,20.8731101 8.93384205,16.8122131 C15.4854589,24.8799031 23.4583946,31.3367653 32.8526492,36.1827995 C42.2469038,41.0288336 52.3044406,43.7225646 63.0252595,44.2639923 C62.5921363,42.2064911 62.3755746,40.2030947 62.3755746,38.2538032 C62.3755746,30.9983493 64.9339486,24.8122481 70.0506967,19.6955001 C75.1674447,14.5787521 81.3535457,12.0203781 88.6089996,12.0203781 C96.1893671,12.0203781 102.578527,14.7818111 107.77648,20.3046771 C113.678364,19.1676221 119.228283,17.0559691 124.426236,13.9697171 C122.422839,20.1964201 118.578503,25.0153551 112.893228,28.4265201 C117.663742,27.9135883 122.434258,26.6717122 127.204893,24.70089 L128,24.3652431 Z" fill="currentColor"></path>
    </g>
</svg>
