<?xml version="1.0" encoding="UTF-8"?>
<svg width="128px" height="128px" viewBox="0 0 128 128" version="1.1" xmlns="http://www.w3.org/2000/svg">
    <g>
        <path d="M64,0 C99.346224,0 128,28.653776 128,64 C128,99.346224 99.346224,128 64,128 C28.653776,128 0,99.346224 0,64 C0,28.653776 28.653776,0 64,0 Z M64,8.10540683 C33.1302686,8.10540683 8.10540683,33.1302686 8.10540683,64 C8.10540683,77.5143155 12.9015716,89.9084267 20.8846195,99.5730521 L20.889674,99.5242384 L20.943267,98.9138076 L20.943267,98.9138076 L20.986033,98.4369065 L20.986033,98.4369065 L21.0233549,98.0307914 L21.0233549,98.0307914 L21.0622073,97.6196739 L21.0622073,97.6196739 L21.0862534,97.371735 L21.0862534,97.371735 L21.119172,97.0408899 L21.119172,97.0408899 L21.1359986,96.8757481 L21.1359986,96.8757481 L21.1616976,96.6288764 L21.1616976,96.6288764 L21.1791364,96.46511 L21.1791364,96.46511 L21.2057538,96.2211185 L21.2057538,96.2211185 L21.2238048,96.0598169 L21.2238048,96.0598169 L21.2513405,95.8203393 L21.2513405,95.8203393 L21.2700037,95.6625915 L21.2700037,95.6625915 L21.2889118,95.5065703 L21.2889118,95.5065703 L21.3080648,95.3524499 L21.3080648,95.3524499 L21.3274626,95.2004045 L21.3274626,95.2004045 L21.3471054,95.0506085 L21.3471054,95.0506085 L21.366993,94.9032361 L21.366993,94.9032361 L21.3871255,94.7584615 L21.3871255,94.7584615 L21.4075029,94.6164591 L21.4075029,94.6164591 L21.4281252,94.477403 L21.4281252,94.477403 L21.4489923,94.3414677 C21.4734802,94.1847646 21.498468,94.0347887 21.5239558,93.8927853 C21.9570691,91.4797252 22.5036169,89.241973 23.1635992,87.1795285 C23.8235814,85.117084 24.7104325,83.1062006 25.8241525,81.1468783 C26.9378726,79.1875561 28.2165882,77.516976 29.6602993,76.1351382 C31.1040104,74.7533004 32.8674005,73.6498926 34.9504694,72.8249148 C37.0335383,71.999937 39.3331639,71.5874481 41.8493462,71.5874481 C41.8827578,71.5874481 41.9201788,71.5910399 41.9616092,71.5982234 L41.9898234,71.6035445 L42.004376,71.6066041 L42.004376,71.6066041 L42.0343722,71.6135216 L42.0498158,71.6173794 L42.0498158,71.6173794 L42.081594,71.6258931 C42.0869893,71.6274008 42.0924342,71.6289528 42.0979285,71.6305491 L42.1314886,71.6406592 L42.1662367,71.6518335 L42.2021727,71.6640721 L42.2392967,71.6773748 L42.2776087,71.6917418 L42.3171086,71.707173 L42.3577965,71.7236685 L42.3996724,71.7412281 L42.4427362,71.759852 L42.486988,71.7795401 L42.5555932,71.8110677 L42.6028149,71.8334163 L42.6512246,71.8568292 L42.7008223,71.8813063 L42.7516079,71.9068476 L42.8035815,71.9334531 L42.8567431,71.9611229 L42.9110926,71.9898568 L42.9948444,72.0349532 L43.0812691,72.0824441 L43.1703667,72.1323295 L43.23125,72.1669167 L43.2933213,72.2025681 L43.3886558,72.2580406 L43.4866631,72.3159077 L43.5873434,72.3761692 L43.6559486,72.4176738 L43.7610838,72.4819262 L43.8688919,72.5485731 L43.9793729,72.6176144 L44.1308388,72.7133943 L44.2475567,72.7880229 L44.3669474,72.8650459 L45.0547421,73.3123016 L45.683828,73.7200372 L46.3352838,74.1409317 L47.1071966,74.6380667 L47.6044794,74.9575039 L48.4238714,75.4825679 L49.0575897,75.8876449 C49.1907319,75.9726634 49.3269933,76.0570582 49.4663738,76.1408291 L49.5866067,76.2124799 C49.8286002,76.3554761 50.0797601,76.4966389 50.3400864,76.6359685 L50.4710135,76.7054805 C50.6904983,76.8210793 50.9163487,76.9354049 51.1485647,77.0484574 L51.2886581,77.1161361 C51.3590868,77.1498991 51.4300883,77.1835475 51.5016628,77.2170813 L51.6455756,77.2839962 L51.7910161,77.3506055 C51.8641183,77.3838338 51.9377934,77.4169475 52.0120414,77.4499466 L52.1613013,77.515792 C52.2363132,77.5486384 52.3118979,77.5813701 52.3880556,77.6139873 L52.5411348,77.6790689 C52.5924158,77.7007118 52.6439515,77.7223039 52.6957418,77.7438449 L52.8518765,77.8083154 C52.904176,77.8297547 52.9567301,77.851143 53.0095389,77.8724804 L53.168729,77.9363398 C53.2753651,77.9788108 53.3830196,78.0210782 53.4916926,78.0631419 L53.6554659,78.1260846 C53.7651574,78.1679446 53.8758674,78.2096009 53.9875959,78.2510535 L54.1559525,78.3130796 C54.2686994,78.3543285 54.3824649,78.3953737 54.4972488,78.4362152 L54.6701886,78.4973247 C54.7570405,78.527803 54.8444652,78.5581668 54.9324628,78.588416 L55.1092219,78.6487616 L55.1981744,78.6788198 L55.1981744,78.6788198 L55.3772251,78.738707 L55.5578036,78.7982888 L55.7399098,78.857565 C58.482961,79.7444161 61.2363244,80.1878417 64,80.1878417 C66.7636756,80.1878417 69.517039,79.7444161 72.2600902,78.857565 L72.4421964,78.7982888 C72.5026438,78.7784791 72.5628367,78.7586185 72.6227749,78.738707 L72.8018256,78.6788198 L72.9793486,78.6186269 C73.1561077,78.5582813 73.3305752,78.4974774 73.5027512,78.4362152 L73.6741632,78.3748002 L73.8440475,78.3130796 C73.900421,78.2924552 73.9565399,78.2717798 74.0124041,78.2510535 L74.179233,78.1887219 L74.3445341,78.1260846 C74.5090713,78.0632947 74.6713169,78.0000464 74.831271,77.9363398 L74.9904611,77.8724804 C75.0432699,77.851143 75.095824,77.8297547 75.1481235,77.8083154 L75.3042582,77.7438449 C75.3560485,77.7223039 75.4075842,77.7007118 75.4588652,77.6790689 L75.6119444,77.6139873 C75.6881021,77.5813701 75.7636868,77.5486384 75.8386987,77.515792 L75.9879586,77.4499466 C76.1117052,77.3949481 76.2338605,77.3396313 76.3544244,77.2839962 L76.4983372,77.2170813 C76.5699117,77.1835475 76.6409132,77.1498991 76.7113419,77.1161361 L76.8514353,77.0484574 C76.9211001,77.0145417 76.990192,76.9805113 77.058711,76.9463664 L77.1949851,76.8779238 C77.2627402,76.8436261 77.3299225,76.8092138 77.3965318,76.774687 L77.5289865,76.7054805 C77.638729,76.6476812 77.74688,76.5895635 77.8534396,76.5311276 L77.9805473,76.4608517 C78.3174642,76.2730419 78.6380852,76.081973 78.9424103,75.8876449 L79.6801505,75.415995 L80.5958033,74.8289234 L81.4744772,74.2636041 L82.1323244,73.83895 L82.9452579,73.3123016 L83.6330526,72.8650459 L83.7524433,72.7880229 L83.8691612,72.7133943 L84.0206271,72.6176144 L84.1311081,72.5485731 L84.2389162,72.4819262 L84.3440514,72.4176738 L84.4465137,72.355816 L84.546303,72.2963526 L84.6434194,72.2392837 L84.7066787,72.2025681 L84.7993402,72.14949 L84.8893287,72.0988065 L84.9766444,72.0505175 L85.0333699,72.019655 L85.0889074,71.9898568 L85.1699862,71.947155 L85.2225538,71.9200173 L85.2739334,71.8939439 L85.3487754,71.8568292 L85.3971851,71.8334163 L85.4444068,71.8110677 L85.4904406,71.7897832 L85.5352864,71.769563 L85.5789442,71.750407 L85.621414,71.7323153 L85.6626959,71.7152877 L85.7223913,71.6917418 L85.7223913,71.6917418 L85.7607033,71.6773748 L85.7794138,71.6705904 L85.7794138,71.6705904 L85.8248907,71.6547934 L85.8248907,71.6547934 L85.8685114,71.6406592 L85.9020715,71.6305491 L85.9344436,71.6215032 C85.93974,71.6200843 85.9449868,71.6187096 85.9501842,71.6173794 L85.9807744,71.6099298 C86.0457661,71.594942 86.1023926,71.5874481 86.1506538,71.5874481 C88.6668361,71.5874481 90.9664617,71.999937 93.0495306,72.8249148 C95.1325995,73.6498926 96.8959896,74.7533004 98.3397007,76.1351382 C99.7834118,77.516976 101.062127,79.1875561 102.175847,81.1468783 C103.289567,83.1062006 104.176419,85.117084 104.836401,87.1795285 C105.496383,89.241973 106.042931,91.4797252 106.476044,93.8927853 C106.825779,95.8413054 107.081377,97.682242 107.242841,99.415595 L107.2441,99.4166456 C115.149956,89.7748779 119.894593,77.4415236 119.894593,64 C119.894593,33.1302686 94.8697314,8.10540683 64,8.10540683 Z M64,28.0286206 C70.5585735,28.0286206 76.1581103,30.3488706 80.7986103,34.9893707 C85.4391104,39.6298708 87.7593605,45.2294076 87.7593605,51.7879811 C87.7593605,58.3465545 85.4391104,63.9460913 80.7986103,68.5865914 C76.1581103,73.2270915 70.5585735,75.5473416 64,75.5473416 C57.4414265,75.5473416 51.8418897,73.2270915 47.2013897,68.5865914 C42.5608896,63.9460913 40.2406395,58.3465545 40.2406395,51.7879811 C40.2406395,45.2294076 42.5608896,39.6298708 47.2013897,34.9893707 C51.8418897,30.3488706 57.4414265,28.0286206 64,28.0286206 Z" fill="currentColor"></path>
    </g>
</svg>
