<?xml version="1.0" encoding="UTF-8"?>
<svg width="256px" height="157px" viewBox="0 0 256 157" version="1.1" xmlns="http://www.w3.org/2000/svg" preserveAspectRatio="xMidYMid">
    <g>
        <path d="M141.341209,0 L157.346956,18.9807191 L165.094279,28.1927148 L171.485416,35.8114629 L175.285736,40.352078 L181.553026,47.8604153 L187.725464,55.2841872 L192.586102,61.1542747 L196.18197,65.51261 L199.732096,69.830161 L204.389429,75.5189855 L207.821545,79.73132 L210.07902,82.5122574 L213.41718,86.6408201 L216.6951,90.7156728 L219.909883,94.7342303 L222.016562,97.380717 L224.093033,100.000269 L226.138435,102.592119 L228.151911,105.155503 L230.1326,107.689654 L233.040281,111.434393 L234.935248,113.892111 L237.710317,117.518609 L237.710317,117.518609 L240.401954,121.070717 L240.401954,121.070717 L242.148596,123.396183 L243.856009,125.686672 L245.523334,127.941417 L247.149713,130.159653 L248.734286,132.340613 C249.255414,133.061302 249.769431,133.77565 250.276194,134.483531 L251.774578,136.587642 C253.004859,138.324685 254.188907,140.020505 255.324487,141.673109 L256,142.659469 L256,156.05639 L224.377774,156.05639 L137.2775,53.2360365 L137.2775,156.05639 L98.178092,156.05639 L98.178092,0 L141.341209,0 Z M37.9810042,0.000208075187 L37.9810042,156.056598 L0,156.056598 L0,0.000208075187 L37.9810042,0.000208075187 Z" fill="currentColor"></path>
    </g>
</svg>
