<?xml version="1.0" encoding="UTF-8"?>
<svg width="512px" height="82px" viewBox="0 0 512 82" version="1.1" xmlns="http://www.w3.org/2000/svg" preserveAspectRatio="xMidYMid">
    <g>
        <path d="M51.2368662,-2.13162821e-14 L73.7626944,-2.13162821e-14 L82.1157224,9.90559648 L82.1157224,9.90559648 L86.1588703,14.7131231 L86.1588703,14.7131231 L89.4942559,18.6891708 L89.4942559,18.6891708 L91.4775546,21.0588124 L91.4775546,21.0588124 L94.748308,24.9772393 L94.748308,24.9772393 L97.9695601,28.8515334 L97.9695601,28.8515334 L100.506214,31.9149958 L100.506214,31.9149958 L102.382814,34.1895097 L102.382814,34.1895097 L104.235542,36.4427393 L104.235542,36.4427393 L106.666096,39.4116047 L106.666096,39.4116047 L108.457238,41.6099242 L108.457238,41.6099242 L109.635362,43.0612309 L109.635362,43.0612309 L111.37747,45.2158319 L111.37747,45.2158319 L113.08814,47.3424029 L113.08814,47.3424029 L114.765861,49.4395947 L114.765861,49.4395947 L115.865288,50.8207347 L115.865288,50.8207347 L116.94895,52.1878179 L116.94895,52.1878179 L118.016398,53.5404446 L118.016398,53.5404446 L119.067184,54.8782151 L119.067184,54.8782151 L120.10086,56.2007296 L120.10086,56.2007296 L121.618311,58.155022 L121.618311,58.155022 L122.60725,59.4376477 L122.60725,59.4376477 L123.577509,60.7036183 C123.737637,60.9132033 123.896969,61.1220776 124.055494,61.330233 L124.996894,62.5704715 C125.152156,62.7757179 125.306594,62.9802286 125.460197,63.1839954 L126.371728,64.3976023 L126.371728,64.3976023 L127.262788,65.5929552 L127.262788,65.5929552 L128.132926,66.7696544 L128.132926,66.7696544 L128.981695,67.9273 L128.981695,67.9273 L129.808647,69.0654923 C130.080612,69.4416031 130.348865,69.8144051 130.613333,70.1838316 L131.395305,71.2819182 C132.03736,72.1884406 132.655287,73.07345 133.24792,73.9359054 L133.600455,74.4506638 L133.600455,81.4422057 L117.097549,81.4422057 L71.6419393,27.7826511 L71.6419393,81.4422057 L51.2368662,81.4422057 L51.2368662,-2.13162821e-14 Z M19.821404,0.000108589608 L19.821404,81.4423143 L0,81.4423143 L0,0.000108589608 L19.821404,0.000108589608 Z M211.747129,5.42948038e-05 L211.747129,18.0851105 L185.079693,18.0851105 L185.079693,81.44226 L165.281093,81.44226 L165.281093,18.1860988 L138.916622,18.1860988 L138.916622,5.42948038e-05 L211.747129,5.42948038e-05 Z M295.588296,-2.13162821e-14 L295.588296,17.8830795 L258.112394,17.8830795 L258.112394,63.5412089 L295.588296,63.5412089 L295.588296,81.4422057 L238.414782,81.4422057 L238.414782,-2.13162821e-14 L295.588296,-2.13162821e-14 Z M472.86702,0.00374634146 L512,81.3297612 L490.139826,81.3444208 L462.549922,23.9939054 L435.062634,81.3493073 L413.395207,81.3237888 L452.287661,0.068900106 L472.86702,0.00374634146 Z M326.883712,0.0315995758 L364.454088,0.155391729 C399.152268,1.2163122 409.455793,40.6766897 378.617973,56.6865985 L397.536455,81.3212369 L373.01475,81.3396971 L356.776803,60.3113196 L326.95321,60.3297799 L326.883712,0.0315995758 Z M347.66342,18.3224331 L347.494126,18.3238553 L347.494126,18.3238553 L347.339926,18.3315171 C346.801912,18.3731393 346.563616,18.575071 346.573723,19.3165709 C346.624217,22.8989421 346.594898,26.4823992 346.594898,30.0653133 L346.594355,34.9024373 L346.594355,34.9024373 L346.596736,40.2144629 L346.596736,40.2144629 L346.601083,40.526681 L346.601083,40.526681 L346.610959,40.8007809 L346.610959,40.8007809 L346.621788,40.9635636 L346.621788,40.9635636 L346.636832,41.1112443 C346.709274,41.69614 346.909816,41.9069151 347.467403,41.9830802 L347.608196,41.998898 L347.608196,41.998898 L347.763404,42.0102825 L347.763404,42.0102825 L347.933728,42.0179695 L347.933728,42.0179695 L348.119873,42.0226949 L348.119873,42.0226949 L348.780264,42.0264585 L348.780264,42.0264585 C353.381206,42.0286303 357.982147,42.0384034 362.583089,42.0194002 C363.42835,42.0163597 364.262438,41.8970577 365.094291,41.7639214 L365.806969,41.6488056 L366.163288,41.593186 C368.326814,41.2648951 370.049381,40.2076414 371.653986,39.0215594 L372.052867,38.7227023 L372.052867,38.7227023 L372.644425,38.2689102 L372.644425,38.2689102 L373.035924,37.9657502 L373.035924,37.9657502 C374.286877,36.9965879 375.187085,35.2977035 375.694198,33.7486727 L375.846229,33.2704151 C376.266464,31.9046122 376.583433,30.448606 376.444009,28.9300089 C376.099237,25.1928976 374.540434,22.325589 371.133435,20.4714214 C368.839588,19.2235097 366.337944,18.8126934 363.855064,18.5812499 L363.234866,18.5267453 C363.131609,18.5181572 363.028417,18.5097853 362.925306,18.501582 L361.999963,18.4310227 L361.999963,18.4310227 C359.02834,18.2104501 356.03869,18.2352645 353.047052,18.2773376 L351.251958,18.3028276 C350.055242,18.3187682 348.85872,18.3301701 347.66342,18.3224331 Z" fill="currentColor"></path>
    </g>
</svg>
